<?xml version="1.0" standalone="no"?><!DOCTYPE svg PUBLIC "-//W3C//DTD SVG 1.1//EN" "http://www.w3.org/Graphics/SVG/1.1/DTD/svg11.dtd"><svg t="1594051198400" class="icon" viewBox="0 0 1024 1024" version="1.1" xmlns="http://www.w3.org/2000/svg" p-id="3048" xmlns:xlink="http://www.w3.org/1999/xlink" width="200" height="200"><defs><style type="text/css"></style></defs><path d="M333.214 512c16.457 0 29.8-13.344 29.8-29.8 0-16.486-13.343-29.801-29.8-29.801s-29.8 13.314-29.8 29.801C303.415 498.656 316.757 512 333.214 512z" p-id="3049"></path><path d="M512.015 512c16.457 0 29.8-13.344 29.8-29.8 0-16.486-13.343-29.801-29.8-29.801s-29.8 13.314-29.8 29.801C482.214 498.656 495.558 512 512.015 512z" p-id="3050"></path><path d="M690.785 512c16.457 0 29.8-13.344 29.8-29.8 0-16.486-13.343-29.801-29.8-29.801s-29.8 13.314-29.8 29.801C660.985 498.656 674.328 512 690.785 512z" p-id="3051"></path><path d="M954.635 173.665c-2.91-2.91-6.723-4.365-10.535-4.365L79.9 169.3c-3.813 0-7.625 1.455-10.535 4.365S65 180.388 65 184.2l0 572.37c0 3.813 1.455 7.625 4.365 10.535s6.722 4.365 10.535 4.365l685.4 0 78.865 78.865c4.133 4.132 10.506 5.602 16.238 3.229 5.733-2.371 9.196-7.915 9.196-13.765l0-68.33 74.5 0c3.813 0 7.625-1.455 10.535-4.365S959 760.382 959 756.569L959 184.2C959 180.388 957.545 176.575 954.635 173.665zM929.2 741.669l-89.4 0 0 62.161-62.146-62.161L94.8 741.669 94.8 199.1l834.4 0L929.2 741.669z" p-id="3052"></path></svg>